<?xml version="1.0" encoding="utf-8"?>
<!-- Generator: Adobe Illustrator 17.0.2, SVG Export Plug-In . SVG Version: 6.00 Build 0)  -->
<!DOCTYPE svg PUBLIC "-//W3C//DTD SVG 1.1//EN" "http://www.w3.org/Graphics/SVG/1.1/DTD/svg11.dtd">
<svg version="1.1" id="Layer_1" xmlns="http://www.w3.org/2000/svg" xmlns:xlink="http://www.w3.org/1999/xlink" x="0px" y="0px"
	 width="523.2px" height="188.352px" viewBox="0 0 523.2 188.352" enable-background="new 0 0 523.2 188.352" xml:space="preserve">
<g>
	<path fill="#FFFFFF" d="M434.256,188.352c-2.499-0.674-5-1.338-7.496-2.024c-23.289-6.395-38.765-28.701-36.137-52.079
		c2.748-24.449,22.899-43.214,47.346-44.091c24.789-0.889,46.402,16.143,50.783,40.019c4.84,26.379-12.229,51.614-38.513,56.969
		c-1.51,0.308-2.983,0.8-4.473,1.206C441.929,188.352,438.093,188.352,434.256,188.352z M460.942,139.081
		c-0.044-11.444-9.616-20.829-21.107-20.693c-11.564,0.136-20.841,9.602-20.673,21.094c0.164,11.248,9.444,20.36,20.815,20.438
		C451.441,159.998,460.986,150.511,460.942,139.081z"/>
	<path fill="#FFFFFF" d="M153.821,188.352c-1.468-0.435-2.915-0.963-4.407-1.29c-24.757-5.443-40.845-27.651-38.564-53.269
		c2.075-23.308,22.536-42.451,46.615-43.613c25.069-1.21,47.279,16.237,51.525,40.476c4.57,26.084-12.479,50.941-38.722,56.492
		c-1.323,0.28-2.596,0.798-3.892,1.205C162.192,188.352,158.006,188.352,153.821,188.352z M139.134,138.963
		c-0.1,11.401,9.39,20.922,20.895,20.96c11.257,0.038,20.791-9.177,21.023-20.32c0.237-11.391-9.1-20.988-20.643-21.217
		C148.971,118.16,139.233,127.578,139.134,138.963z"/>
	<path fill="#FFFFFF" d="M523.2,108.826c-0.735,3.187-1.458,6.376-2.206,9.56c-3.691,15.712-11.561,29.023-23.133,40.197
		c-0.354,0.342-0.849,0.537-1.297,0.813c0.333-7.629,0.662-15.172,1.05-24.054c4.391-6.815,8.106-15.403,9.473-24.856
		c1.742-12.047,0.431-23.706-5.402-34.519c-9.64-17.868-25.202-25.44-44.987-24.451c-5.84,0.292-9.281-1.343-12.363-6.312
		c-8.971-14.464-21.381-24.773-38.343-28.554c-16.242-3.62-30.708,0.704-43.609,10.808c-9.211,7.214-15.998,16.434-21.627,26.594
		c-3.086,5.57-5.698,6.678-11.512,4.79c-18.714-6.074-34.252-1.214-46.999,13.466c-0.456,0.525-0.915,1.046-1.579,1.806
		c-5.503,0-11.2,0-17.57,0c1.491-2.787,2.763-5.165,4.428-8.278c-16.36-0.8-32.109-1.569-47.859-2.339
		c-0.007-0.126-0.015-0.252-0.022-0.378c17.667-1.174,35.334-2.349,53.309-3.544c15.441-15.876,34.158-21.757,56.339-16.692
		c3.274-4.675,6.526-9.318,10.496-14.987c-23.27-0.772-45.602-1.513-67.934-2.255c-0.016-0.203-0.032-0.407-0.048-0.61
		c25.339-1.789,50.678-3.578,75.547-5.334c4.779-3.41,9.032-6.758,13.588-9.625c7.602-4.784,15.913-7.824,24.849-9.082
		c1.18-0.166,2.315-0.653,3.471-0.992c4.186,0,8.371,0,12.557,0c0.625,0.281,1.227,0.727,1.879,0.82
		c21.674,3.101,38.021,14.627,50.708,31.973c0.81,1.108,1.704,2.155,2.737,3.453c1.542,0,3.1-0.053,4.654,0.008
		c30.583,1.202,52.898,19.911,59.518,49.872c0.595,2.691,1.256,5.366,1.887,8.049C523.2,99.059,523.2,103.942,523.2,108.826z"/>
	<path fill="#FFFFFF" d="M0,69.062c2.182-3.871,5.382-5.506,9.91-5.225c4.854,0.301,9.742,0.048,14.614,0.073
		c7.44,0.038,9.732,2.253,9.752,9.574c0.036,13.226,0.011,26.452,0.011,39.679c0,20.187,0.007,40.375-0.004,60.562
		c-0.005,8.612-1.894,10.54-10.288,10.567c-4.351,0.014-8.714-0.203-13.049,0.06c-4.438,0.269-8.186-0.684-10.947-4.371
		C0,143.008,0,106.035,0,69.062z"/>
	<path fill="#FFFFFF" d="M252.027,103.65c5.736-4.682,11.438-8.198,18.299-9.515c19.681-3.776,36.573,9.295,37.225,29.378
		c0.446,13.754,0.129,27.533,0.148,41.3c0.006,4.008,0.103,8.021-0.039,12.024c-0.175,4.911-2.549,7.3-7.516,7.409
		c-6.445,0.142-12.896,0.099-19.344,0.026c-6.134-0.07-8.569-2.452-8.597-8.539c-0.064-13.768-0.02-27.536-0.024-41.304
		c0-1.394,0.064-2.796-0.055-4.181c-0.487-5.68-5-9.86-10.377-9.676c-5.21,0.178-9.542,4.283-9.687,9.775
		c-0.22,8.36-0.08,16.729-0.088,25.094c-0.006,6.623,0.047,13.246-0.017,19.868c-0.063,6.507-2.386,8.894-8.747,8.966
		c-6.273,0.071-12.549,0.099-18.821-0.014c-5.596-0.101-7.909-2.375-7.924-8.046c-0.066-24.747-0.071-49.495,0.009-74.242
		c0.018-5.523,2.463-7.745,8.142-7.844c5.053-0.088,10.119,0.186,15.159-0.083c4.562-0.243,7.73,1.375,9.699,5.498
		C250.063,100.782,250.92,101.892,252.027,103.65z"/>
	<path fill="#FFFFFF" d="M77.529,108.059c8.06-8.903,15.57-18.456,29.5-17.231c0,10.844,0,21.236,0,31.991
		c-10.341,2.368-17.964,8.73-24.144,17.01c-5.033,6.744-8.043,14.171-7.56,22.824c0.262,4.693,0.147,9.416,0.007,14.119
		c-0.147,4.915-2.545,7.338-7.469,7.474c-5.401,0.149-10.81,0.12-16.213,0.019c-5.668-0.105-7.939-2.28-8.077-7.955
		c-0.156-6.447-0.042-12.901-0.038-19.352c0.01-17.958,0.023-35.917,0.038-53.875c0.001-1.395-0.054-2.796,0.058-4.182
		c0.379-4.684,2.513-7.031,7.267-7.234c5.742-0.246,11.512-0.261,17.253,0.001c4.883,0.223,6.891,2.78,7.256,7.809
		C75.598,102.119,74.291,105.092,77.529,108.059z"/>
	<path fill="#FFFFFF" d="M353.66,139.728c0.001-11.674-0.04-23.348,0.016-35.022c0.033-6.881,2.181-8.946,9.157-9.016
		c4.181-0.042,8.364-0.044,12.545,0.002c6.902,0.077,8.963,2.112,9.069,9.147c0.092,6.097,0.023,12.197,0.024,18.295
		c0.001,16.553,0.004,33.106-0.007,49.659c-0.001,1.74,0.06,3.502-0.174,5.217c-0.571,4.179-2.683,6.136-6.96,6.241
		c-5.398,0.133-10.804,0.121-16.203,0.012c-4.956-0.1-7.309-2.377-7.414-7.422c-0.156-7.489-0.05-14.984-0.053-22.476
		C353.657,149.485,353.659,144.606,353.66,139.728z"/>
	<path fill="#FFFFFF" d="M330.645,184.286c-3.126,0.001-6.255,0.077-9.379-0.016c-4.792-0.143-7.189-2.222-7.355-6.878
		c-0.217-6.071-0.203-12.16-0.015-18.233c0.143-4.633,2.621-7.069,7.181-7.178c6.249-0.15,12.507-0.135,18.757-0.007
		c4.578,0.094,7.237,2.504,7.407,6.996c0.231,6.07,0.215,12.161,0.014,18.233c-0.154,4.655-2.607,6.901-7.232,7.062
		C336.901,184.373,333.771,184.285,330.645,184.286z"/>
	<path fill="#FFFFFF" d="M369.131,87.912c-2.785,0-5.574,0.092-8.354-0.021c-4.376-0.179-6.62-2.385-7.071-6.745
		c-0.036-0.345-0.029-0.695-0.037-1.043c-0.221-8.875-0.685-13.869,12.424-13.05c3.641,0.227,7.311-0.049,10.963,0.065
		c4.499,0.14,6.649,2.156,7.28,6.552c0.025,0.172,0.058,0.345,0.062,0.518c0.185,9.239,0.999,14.765-12.134,13.746
		c-1.038-0.081-2.088-0.011-3.132-0.011C369.131,87.918,369.131,87.915,369.131,87.912z"/>
</g>
</svg>
